<svg xmlns="http://www.w3.org/2000/svg" width="113.124" height="115.766" viewBox="0 0 113.124 115.766">
  <g id="Group_2909" data-name="Group 2909" transform="translate(1.055 1.071)">
    <path id="Path_950" data-name="Path 950" d="M72.278,150.736a50.134,50.134,0,0,0-9.454,7.448c-13.054,13.054-16.818,30.459-8.4,38.87,3.132,3.132,5.927,5.93,9.059,9.059,8.411,8.414,25.815,4.651,38.87-8.4a49.013,49.013,0,0,0,8.781-11.82" transform="translate(-49.933 -96.96)" fill="none" stroke="#003c74" stroke-miterlimit="10" stroke-width="2"/>
    <path id="Path_951" data-name="Path 951" d="M96.953,163a50.693,50.693,0,0,1-6.329,7.689c-13.054,13.054-30.459,16.818-38.87,8.4" transform="translate(-47.267 -79)" fill="none" stroke="#003c74" stroke-miterlimit="10" stroke-width="2"/>
    <path id="Path_952" data-name="Path 952" d="M71.343,171.722A9.189,9.189,0,0,1,58.37,158.749" transform="translate(-41.139 -85.225)" fill="none" stroke="#003c74" stroke-miterlimit="10" stroke-width="2"/>
    <line id="Line_33" data-name="Line 33" x2="4.787" y2="4.787" transform="translate(22.77 66.858)" fill="none" stroke="#003c74" stroke-miterlimit="10" stroke-width="2"/>
    <line id="Line_34" data-name="Line 34" x1="4.787" y1="4.787" transform="translate(32.344 76.432)" fill="none" stroke="#003c74" stroke-miterlimit="10" stroke-width="2"/>
    <path id="Path_953" data-name="Path 953" d="M78.006,134.792c11.019-11.019,33.81-6.09,50.906,11.009s22.028,39.888,11.009,50.906l-11.864,11.864c-11.019,11.019-33.81,6.09-50.906-11.009s-22.025-39.888-11.009-50.906Z" transform="translate(-34.8 -128.916)" fill="none" stroke="#003c74" stroke-miterlimit="10" stroke-width="2"/>
    <path id="Path_954" data-name="Path 954" d="M77.9,158.041c4.426,4.429,11.82,4.214,16.51-.478s4.907-12.083.481-16.512" transform="translate(-8.975 -111.144)" fill="none" stroke="#003c74" stroke-miterlimit="10" stroke-width="2"/>
    <line id="Line_35" data-name="Line 35" x1="6.269" y2="6.269" transform="translate(72.392 21.178)" fill="none" stroke="#003c74" stroke-miterlimit="10" stroke-width="2"/>
    <line id="Line_36" data-name="Line 36" y1="6.269" x2="6.27" transform="translate(59.853 33.716)" fill="none" stroke="#003c74" stroke-miterlimit="10" stroke-width="2"/>
    <path id="Path_955" data-name="Path 955" d="M70.956,131.3c-11.016,11.019-6.09,33.81,11.009,50.906s39.89,22.028,50.906,11.009" transform="translate(-27.75 -125.424)" fill="none" stroke="#003c74" stroke-miterlimit="10" stroke-width="2"/>
  </g>
</svg>
