<svg xmlns="http://www.w3.org/2000/svg" width="100.349" height="100.349" viewBox="0 0 100.349 100.349">
  <g id="Group_2901" data-name="Group 2901" transform="translate(1.2 1.2)">
    <rect id="Rectangle_1622" data-name="Rectangle 1622" width="97.949" height="97.949" rx="6.517" transform="translate(0 0)" fill="#fff" stroke="#003c74" stroke-miterlimit="10" stroke-width="2.4"/>
    <g id="Group_2869" data-name="Group 2869" transform="translate(22.249 7.7)">
      <path id="Path_938" data-name="Path 938" d="M1111.716,55.972l13.38-12.508a35.258,35.258,0,0,0-53.452,0l13.38,12.508Z" transform="translate(-1071.644 -31.202)" fill="#fff" stroke="#003c74" stroke-miterlimit="10" stroke-width="2.4"/>
      <line id="Line_12" data-name="Line 12" y2="17.164" transform="translate(26.726 7.126)" fill="none" stroke="#003c74" stroke-linecap="round" stroke-miterlimit="10" stroke-width="2.4"/>
      <line id="Line_13" data-name="Line 13" x2="3.961" y2="7.442" transform="translate(14.227 10.247)" fill="none" stroke="#003c74" stroke-linecap="round" stroke-miterlimit="10" stroke-width="2.4"/>
      <line id="Line_14" data-name="Line 14" x1="3.961" y2="7.442" transform="translate(35.264 10.247)" fill="none" stroke="#003c74" stroke-linecap="round" stroke-miterlimit="10" stroke-width="2.4"/>
      <path id="Path_1150" data-name="Path 1150" d="M1111.716,55.972l13.38-12.508a35.258,35.258,0,0,0-53.452,0l13.38,12.508Z" transform="translate(-1071.644 -31.202)" fill="#fff" stroke="#003c74" stroke-miterlimit="10" stroke-width="2.4"/>
      <line id="Line_40" data-name="Line 40" y2="17.164" transform="translate(26.726 7.126)" fill="none" stroke="#003c74" stroke-linecap="round" stroke-miterlimit="10" stroke-width="2.4"/>
      <line id="Line_41" data-name="Line 41" x2="3.961" y2="7.442" transform="translate(14.227 10.247)" fill="none" stroke="#003c74" stroke-linecap="round" stroke-miterlimit="10" stroke-width="2.4"/>
      <line id="Line_42" data-name="Line 42" x1="3.961" y2="7.442" transform="translate(35.265 10.247)" fill="none" stroke="#003c74" stroke-linecap="round" stroke-miterlimit="10" stroke-width="2.4"/>
    </g>
  </g>
</svg>
