<svg xmlns="http://www.w3.org/2000/svg" width="90.44" height="106.454" viewBox="0 0 90.44 106.454">
  <g id="Group_2874" data-name="Group 2874" transform="translate(1.2 1.211)">
    <g id="Group_2873" data-name="Group 2873" transform="translate(0)">
      <path id="Path_939" data-name="Path 939" d="M434.743,533.8a1.862,1.862,0,0,1,1.767,1.769c.187,3.521-.081,12.041-6.176,18.136-7.861,7.862-19.757,6.029-19.757,6.029s-1.833-11.895,6.029-19.757C422.7,533.881,431.221,533.613,434.743,533.8Z" transform="translate(-369.344 -533.761)" fill="none" stroke="#003c74" stroke-width="2.4"/>
      <g id="Group_2871" data-name="Group 2871" transform="translate(22.452 7.11)">
        <path id="Path_940" data-name="Path 940" d="M411.69,559.446c-.959-5.585-4.586-15.347-18.067-18.995a2.14,2.14,0,0,0-.528-.076" transform="translate(-393.095 -540.375)" fill="none" stroke="#003c74" stroke-linecap="round" stroke-width="2.4"/>
      </g>
      <path id="Path_941" data-name="Path 941" d="M372.269,588.71a43.182,43.182,0,0,1,.058-5.4c.674-9.037,4.674-18.587,12.766-23.323a28.913,28.913,0,0,1,21-3.019,42.829,42.829,0,0,0,10.139,1.648" transform="translate(-372.211 -532.079)" fill="none" stroke="#003c74" stroke-width="2.4"/>
      <path id="Path_942" data-name="Path 942" d="M415.409,558.612a42.82,42.82,0,0,0,10.14-1.648,28.917,28.917,0,0,1,21,3.019c8.09,4.736,12.09,14.286,12.764,23.323.66,8.831-1.559,17.742-5.08,25.792A61.917,61.917,0,0,1,439,630.737c-2.849,2.509-6.392,5.064-10.309,5.356a13.93,13.93,0,0,1-6.4-1.323c-2.083-.958-3.814-1.92-6.879-1.92s-4.8.962-6.878,1.92a13.927,13.927,0,0,1-6.4,1.323c-3.918-.292-7.461-2.847-10.309-5.356a54.781,54.781,0,0,1-8.687-9.855" transform="translate(-371.391 -532.079)" fill="none" stroke="#003c74" stroke-width="2.4"/>
      <g id="Group_2872" data-name="Group 2872" transform="translate(75.099 39.044)">
        <path id="Path_943" data-name="Path 943" d="M446.2,593.04c1.757-7.127-.1-17.427-4.131-22.962" transform="translate(-442.065 -570.078)" fill="none" stroke="#003c74" stroke-linecap="round" stroke-width="2.4"/>
      </g>
    </g>
    <path id="Path_944" data-name="Path 944" d="M436.09,534.452s-11.846,14.39-25.526,25.229" transform="translate(-358.827 -533.709)" fill="none" stroke="#003c74" stroke-width="2.4"/>
  </g>
</svg>
