<svg xmlns="http://www.w3.org/2000/svg" width="134.641" height="127.63" viewBox="0 0 134.641 127.63">
  <g id="Group_2906" data-name="Group 2906" transform="translate(1.2 1.2)">
    <g id="Group_2885" data-name="Group 2885" transform="translate(0 0)">
      <rect id="Rectangle_1623" data-name="Rectangle 1623" width="16.629" height="58.437" rx="4.717" transform="translate(0 66.793)" fill="none" stroke="#003c74" stroke-miterlimit="10" stroke-width="2.4"/>
      <rect id="Rectangle_1624" data-name="Rectangle 1624" width="16.629" height="58.437" rx="4.717" transform="translate(115.612 66.793)" fill="none" stroke="#003c74" stroke-miterlimit="10" stroke-width="2.4"/>
      <path id="Path_949" data-name="Path 949" d="M879.748,193.859V172.73a45.664,45.664,0,0,1,91.328,0h-.01a33.508,33.508,0,1,1-67.015,0h-.017a45.663,45.663,0,1,1,91.326,0v21.129" transform="translate(-871.434 -127.066)" fill="none" stroke="#003c74" stroke-miterlimit="10" stroke-width="2.4"/>
    </g>
    <g id="Group_2887" data-name="Group 2887" transform="translate(0 71.449)">
      <line id="Line_23" data-name="Line 23" y1="11.08" x2="15.99" transform="translate(0.066)" fill="none" stroke="#003c74" stroke-miterlimit="10" stroke-width="2.4"/>
      <g id="Group_2886" data-name="Group 2886" transform="translate(0 9.756)">
        <line id="Line_24" data-name="Line 24" y1="11.08" x2="15.99" transform="translate(0.05)" fill="none" stroke="#003c74" stroke-miterlimit="10" stroke-width="2.4"/>
        <line id="Line_25" data-name="Line 25" y1="11.08" x2="15.99" transform="translate(0.033 9.756)" fill="none" stroke="#003c74" stroke-miterlimit="10" stroke-width="2.4"/>
        <line id="Line_26" data-name="Line 26" y1="11.08" x2="15.99" transform="translate(0.017 19.512)" fill="none" stroke="#003c74" stroke-miterlimit="10" stroke-width="2.4"/>
        <line id="Line_27" data-name="Line 27" y1="11.08" x2="15.99" transform="translate(0 29.268)" fill="none" stroke="#003c74" stroke-miterlimit="10" stroke-width="2.4"/>
      </g>
    </g>
    <g id="Group_2889" data-name="Group 2889" transform="translate(115.898 71.449)">
      <line id="Line_28" data-name="Line 28" y1="11.08" x2="15.99" transform="translate(0.066)" fill="none" stroke="#003c74" stroke-miterlimit="10" stroke-width="2.4"/>
      <g id="Group_2888" data-name="Group 2888" transform="translate(0 9.756)">
        <line id="Line_29" data-name="Line 29" y1="11.08" x2="15.99" transform="translate(0.05)" fill="none" stroke="#003c74" stroke-miterlimit="10" stroke-width="2.4"/>
        <line id="Line_30" data-name="Line 30" y1="11.08" x2="15.99" transform="translate(0.033 9.756)" fill="none" stroke="#003c74" stroke-miterlimit="10" stroke-width="2.4"/>
        <line id="Line_31" data-name="Line 31" y1="11.08" x2="15.99" transform="translate(0.017 19.512)" fill="none" stroke="#003c74" stroke-miterlimit="10" stroke-width="2.4"/>
        <line id="Line_32" data-name="Line 32" y1="11.08" x2="15.99" transform="translate(0 29.268)" fill="none" stroke="#003c74" stroke-miterlimit="10" stroke-width="2.4"/>
      </g>
    </g>
  </g>
</svg>
