<svg xmlns="http://www.w3.org/2000/svg" width="99.629" height="129.378" viewBox="0 0 99.629 129.378">
  <g id="Group_2904" data-name="Group 2904" transform="translate(1.311 1.311)">
    <g id="Group_2866" data-name="Group 2866" transform="translate(0 0)">
      <line id="Line_11" data-name="Line 11" x2="4.132" transform="translate(46.437 58.665)" fill="none" stroke="#003c74" stroke-linecap="round" stroke-width="2.4"/>
      <path id="Path_923" data-name="Path 923" d="M527.813,380.79s2.221,22.655,16.607,49.809a4.287,4.287,0,0,1-.142,4.295c-4.122,6.577-16.12,28.612-14.433,60.023,0,0-.828,2.8-1.25,10.63" transform="translate(-527.813 -380.79)" fill="none" stroke="#003c74" stroke-linecap="round" stroke-width="2.4"/>
      <path id="Path_924" data-name="Path 924" d="M529,388s1.073,5.757,9.046,5.131h22.2s7.32-.323,9.812-5.971" transform="translate(-527.724 -380.312)" fill="none" stroke="#003c74" stroke-linecap="round" stroke-width="2.4"/>
      <path id="Path_925" data-name="Path 925" d="M548.472,432.995s2.491,8.443,13.747,15.634" transform="translate(-526.262 -376.87)" fill="none" stroke="#003c74" stroke-linecap="round" stroke-width="2.4"/>
      <path id="Path_926" data-name="Path 926" d="M529.7,486.946s18.217,4.826,44.519,2.8" transform="translate(-527.671 -372.819)" fill="none" stroke="#003c74" stroke-linecap="round" stroke-width="2.4"/>
      <path id="Path_927" data-name="Path 927" d="M546.939,405.4s9.874,2.645,23.51.425" transform="translate(-526.377 -378.942)" fill="none" stroke="#003c74" stroke-linecap="round" stroke-width="2.4"/>
      <path id="Path_928" data-name="Path 928" d="M550.473,421c3.473.858,11.6,2.412,20.057.081" transform="translate(-526.112 -377.771)" fill="none" stroke="#003c74" stroke-linecap="round" stroke-width="2.4"/>
      <path id="Path_929" data-name="Path 929" d="M619.239,380.79s-2.221,22.655-16.607,49.809a4.287,4.287,0,0,0,.142,4.295c4.122,6.577,16.12,28.612,14.433,60.023,0,0,.828,2.8,1.25,10.63" transform="translate(-522.233 -380.79)" fill="none" stroke="#003c74" stroke-linecap="round" stroke-width="2.4"/>
      <path id="Path_930" data-name="Path 930" d="M619.729,388s-1.073,5.757-9.046,5.131h-22.2s-7.32-.323-9.812-5.971" transform="translate(-523.994 -380.312)" fill="none" stroke="#003c74" stroke-linecap="round" stroke-width="2.4"/>
      <path id="Path_931" data-name="Path 931" d="M598.345,432.995s-2.491,8.443-13.747,15.634" transform="translate(-523.549 -376.87)" fill="none" stroke="#003c74" stroke-linecap="round" stroke-width="2.4"/>
      <path id="Path_932" data-name="Path 932" d="M577.988,499.646c-.782-1.72-4.8-17.354-4.8-17.354s-3.879,15.634-4.66,17.354" transform="translate(-524.756 -373.169)" fill="none" stroke="#003c74" stroke-linecap="round" stroke-linejoin="round" stroke-width="2.4"/>
      <path id="Path_933" data-name="Path 933" d="M619.263,486.946s-18.217,4.826-44.519,2.8" transform="translate(-524.289 -372.819)" fill="none" stroke="#003c74" stroke-linecap="round" stroke-width="2.4"/>
      <path id="Path_934" data-name="Path 934" d="M600.56,405.4s-9.874,2.645-23.51.425" transform="translate(-524.116 -378.942)" fill="none" stroke="#003c74" stroke-linecap="round" stroke-width="2.4"/>
      <path id="Path_935" data-name="Path 935" d="M596.785,421c-3.473.858-11.6,2.412-20.057.081" transform="translate(-524.14 -377.771)" fill="none" stroke="#003c74" stroke-linecap="round" stroke-width="2.4"/>
      <path id="Path_936" data-name="Path 936" d="M614.194,442.85c-6.356,3.251-21.235,5.533-38.578,5.533-17.252,0-32.068-2.258-38.478-5.483" transform="translate(-527.113 -376.13)" fill="none" stroke="#003c74" stroke-linecap="round" stroke-width="2.4"/>
      <path id="Path_937" data-name="Path 937" d="M585.926,472.04c0,5.075-5.44,9.19-12.149,9.19s-12.148-4.114-12.148-9.19" transform="translate(-525.274 -373.939)" fill="none" stroke="#003c74" stroke-linecap="round" stroke-width="2.4"/>
    </g>
  </g>
</svg>
